<?xml version="1.0" standalone="no"?>
<!DOCTYPE svg PUBLIC "-//W3C//DTD SVG 20010904//EN"
 "http://www.w3.org/TR/2001/REC-SVG-20010904/DTD/svg10.dtd">
<svg version="1.0" xmlns="http://www.w3.org/2000/svg"
 width="418.000000pt" height="418.000000pt" viewBox="0 0 418.000000 418.000000"
 preserveAspectRatio="xMidYMid meet">
<metadata>
Created by potrace 1.11, written by Peter Selinger 2001-2013
</metadata>
<g transform="translate(0.000000,418.000000) scale(0.100000,-0.100000)"
fill="#000000" stroke="none">
<path d="M630 3756 c0 -4 43 -72 96 -153 85 -131 94 -149 85 -170 -26 -56 -4
-149 56 -246 38 -62 38 -62 25 -112 -7 -27 -15 -88 -19 -134 -7 -91 -26 -126
-84 -157 -33 -17 -37 -45 -14 -100 19 -46 57 -91 109 -129 39 -29 44 -30 154
-31 63 -1 118 -6 123 -11 5 -5 2 -55 -6 -118 -18 -134 -19 -185 -4 -185 7 0
31 17 54 39 23 21 52 44 65 51 21 11 22 11 16 -11 -4 -13 -9 -92 -13 -175 -5
-136 -4 -158 15 -221 26 -86 67 -144 126 -178 l45 -26 -5 -152 c-7 -218 -21
-363 -44 -453 -24 -96 -94 -278 -166 -436 -61 -133 -65 -155 -29 -163 14 -3
36 -7 49 -10 22 -4 24 -9 19 -44 l-5 -39 48 -9 c27 -4 125 -8 217 -8 189 0
191 1 203 75 4 25 15 41 38 55 41 27 46 61 12 77 -33 14 -33 28 -1 58 28 27
33 65 9 74 -14 5 -16 17 -10 79 21 243 26 418 16 551 -10 135 -26 273 -36 307
-3 13 15 19 103 33 60 9 115 19 125 22 11 3 26 -12 53 -55 20 -33 59 -91 88
-128 96 -125 221 -307 249 -363 82 -165 80 -345 -6 -600 -14 -41 -26 -79 -26
-83 0 -12 66 -37 99 -37 20 0 30 -6 34 -20 9 -34 54 -43 239 -48 l177 -4 25
25 c40 40 35 101 -28 349 -59 231 -123 412 -205 581 -62 127 -86 157 -140 182
-32 14 -43 26 -51 54 -15 56 -12 138 10 215 10 39 24 109 29 155 13 104 -4
204 -53 304 l-33 68 51 26 c95 48 198 15 248 -80 19 -36 22 -56 21 -137 -2
-82 -9 -144 -40 -352 -7 -50 21 -54 31 -5 4 17 20 59 36 92 28 58 29 58 22 20
-13 -77 -6 -277 12 -345 18 -71 65 -156 108 -196 38 -37 48 -24 32 43 -7 32
-16 92 -19 133 l-6 75 24 -66 c34 -93 76 -163 144 -240 104 -119 199 -192 285
-220 74 -24 218 -45 242 -36 25 10 14 21 -49 51 -77 38 -159 117 -221 211 -29
44 -51 81 -50 83 2 1 16 -4 32 -13 57 -29 77 -12 39 33 -14 17 -39 60 -56 97
-34 71 -47 176 -48 365 l-1 85 29 -50 c33 -57 55 -80 70 -70 6 3 8 18 6 33 -3
15 -9 128 -15 252 -5 124 -16 263 -25 309 -33 169 -107 330 -192 414 -73 73
-113 91 -206 92 l-78 0 35 33 c48 43 46 56 -5 49 -61 -8 -212 -85 -304 -155
-101 -76 -156 -145 -245 -310 l-71 -131 -62 6 c-87 7 -163 -9 -280 -63 -115
-52 -207 -69 -207 -39 0 9 32 51 71 93 80 86 76 64 43 242 -15 75 -18 128 -14
250 2 85 4 218 5 295 0 130 -2 143 -23 177 -13 21 -34 46 -48 57 -13 10 -24
22 -24 26 0 4 -7 32 -16 62 l-16 55 -28 -27 -28 -27 -39 25 c-69 44 -196 104
-253 120 -218 62 -290 69 -365 33 -29 -15 -70 -45 -90 -67 l-36 -40 -97 72
c-53 40 -112 83 -129 97 -18 13 -33 21 -33 18z"/>
</g>
</svg>
